<svg xmlns="http://www.w3.org/2000/svg" viewBox="0 0 370 370" width="370" height="370">
<rect width="370" height="370" rx="20" fill="#fff"/>
<g fill="#111">
<path fill-rule="evenodd" d="M60 40h30a20 20 0 0 1 20 20v30a20 20 0 0 1 -20 20h-30a20 20 0 0 1 -20 -20v-30a20 20 0 0 1 20 -20zM60 50h30a10 10 0 0 1 10 10v30a10 10 0 0 1 -10 10h-30a10 10 0 0 1 -10 -10v-30a10 10 0 0 1 10 -10z"/>
<rect x="60" y="60" width="30" height="30" rx="10"/>
<path fill-rule="evenodd" d="M280 40h30a20 20 0 0 1 20 20v30a20 20 0 0 1 -20 20h-30a20 20 0 0 1 -20 -20v-30a20 20 0 0 1 20 -20zM280 50h30a10 10 0 0 1 10 10v30a10 10 0 0 1 -10 10h-30a10 10 0 0 1 -10 -10v-30a10 10 0 0 1 10 -10z"/>
<rect x="280" y="60" width="30" height="30" rx="10"/>
<path fill-rule="evenodd" d="M60 260h30a20 20 0 0 1 20 20v30a20 20 0 0 1 -20 20h-30a20 20 0 0 1 -20 -20v-30a20 20 0 0 1 20 -20zM60 270h30a10 10 0 0 1 10 10v30a10 10 0 0 1 -10 10h-30a10 10 0 0 1 -10 -10v-30a10 10 0 0 1 10 -10z"/>
<rect x="60" y="280" width="30" height="30" rx="10"/>
<circle cx="135" cy="45" r="4.6"/>
<circle cx="145" cy="45" r="4.6"/>
<circle cx="155" cy="45" r="4.6"/>
<circle cx="195" cy="45" r="4.6"/>
<circle cx="205" cy="45" r="4.6"/>
<circle cx="225" cy="45" r="4.6"/>
<circle cx="235" cy="45" r="4.6"/>
<circle cx="245" cy="45" r="4.6"/>
<circle cx="135" cy="55" r="4.6"/>
<circle cx="145" cy="55" r="4.6"/>
<circle cx="185" cy="55" r="4.6"/>
<circle cx="195" cy="55" r="4.6"/>
<circle cx="215" cy="55" r="4.6"/>
<circle cx="225" cy="55" r="4.6"/>
<circle cx="125" cy="65" r="4.6"/>
<circle cx="135" cy="65" r="4.6"/>
<circle cx="165" cy="65" r="4.6"/>
<circle cx="225" cy="65" r="4.6"/>
<circle cx="235" cy="65" r="4.6"/>
<circle cx="245" cy="65" r="4.6"/>
<circle cx="125" cy="75" r="4.6"/>
<circle cx="135" cy="75" r="4.6"/>
<circle cx="165" cy="75" r="4.6"/>
<circle cx="175" cy="75" r="4.6"/>
<circle cx="195" cy="75" r="4.6"/>
<circle cx="205" cy="75" r="4.6"/>
<circle cx="215" cy="75" r="4.6"/>
<circle cx="225" cy="75" r="4.6"/>
<circle cx="245" cy="75" r="4.6"/>
<circle cx="125" cy="85" r="4.6"/>
<circle cx="135" cy="85" r="4.6"/>
<circle cx="145" cy="85" r="4.6"/>
<circle cx="155" cy="85" r="4.6"/>
<circle cx="185" cy="85" r="4.6"/>
<circle cx="235" cy="85" r="4.6"/>
<circle cx="125" cy="95" r="4.6"/>
<circle cx="145" cy="95" r="4.6"/>
<circle cx="165" cy="95" r="4.6"/>
<circle cx="195" cy="95" r="4.6"/>
<circle cx="215" cy="95" r="4.6"/>
<circle cx="225" cy="95" r="4.6"/>
<circle cx="245" cy="95" r="4.6"/>
<circle cx="125" cy="105" r="4.6"/>
<circle cx="145" cy="105" r="4.6"/>
<circle cx="165" cy="105" r="4.6"/>
<circle cx="185" cy="105" r="4.6"/>
<circle cx="205" cy="105" r="4.6"/>
<circle cx="225" cy="105" r="4.6"/>
<circle cx="245" cy="105" r="4.6"/>
<circle cx="125" cy="115" r="4.6"/>
<circle cx="135" cy="115" r="4.6"/>
<circle cx="185" cy="115" r="4.6"/>
<circle cx="195" cy="115" r="4.6"/>
<circle cx="225" cy="115" r="4.6"/>
<circle cx="245" cy="115" r="4.6"/>
<circle cx="45" cy="125" r="4.6"/>
<circle cx="65" cy="125" r="4.6"/>
<circle cx="75" cy="125" r="4.6"/>
<circle cx="85" cy="125" r="4.6"/>
<circle cx="95" cy="125" r="4.6"/>
<circle cx="105" cy="125" r="4.6"/>
<circle cx="135" cy="125" r="4.6"/>
<circle cx="155" cy="125" r="4.6"/>
<circle cx="165" cy="125" r="4.6"/>
<circle cx="175" cy="125" r="4.6"/>
<circle cx="195" cy="125" r="4.6"/>
<circle cx="205" cy="125" r="4.6"/>
<circle cx="245" cy="125" r="4.6"/>
<circle cx="265" cy="125" r="4.6"/>
<circle cx="275" cy="125" r="4.6"/>
<circle cx="285" cy="125" r="4.6"/>
<circle cx="295" cy="125" r="4.6"/>
<circle cx="305" cy="125" r="4.6"/>
<circle cx="55" cy="135" r="4.6"/>
<circle cx="75" cy="135" r="4.6"/>
<circle cx="95" cy="135" r="4.6"/>
<circle cx="115" cy="135" r="4.6"/>
<circle cx="125" cy="135" r="4.6"/>
<circle cx="135" cy="135" r="4.6"/>
<circle cx="145" cy="135" r="4.6"/>
<circle cx="155" cy="135" r="4.6"/>
<circle cx="185" cy="135" r="4.6"/>
<circle cx="225" cy="135" r="4.6"/>
<circle cx="235" cy="135" r="4.6"/>
<circle cx="265" cy="135" r="4.6"/>
<circle cx="285" cy="135" r="4.6"/>
<circle cx="325" cy="135" r="4.6"/>
<circle cx="85" cy="145" r="4.6"/>
<circle cx="95" cy="145" r="4.6"/>
<circle cx="105" cy="145" r="4.6"/>
<circle cx="125" cy="145" r="4.6"/>
<circle cx="135" cy="145" r="4.6"/>
<circle cx="165" cy="145" r="4.6"/>
<circle cx="185" cy="145" r="4.6"/>
<circle cx="195" cy="145" r="4.6"/>
<circle cx="205" cy="145" r="4.6"/>
<circle cx="255" cy="145" r="4.6"/>
<circle cx="265" cy="145" r="4.6"/>
<circle cx="275" cy="145" r="4.6"/>
<circle cx="285" cy="145" r="4.6"/>
<circle cx="295" cy="145" r="4.6"/>
<circle cx="305" cy="145" r="4.6"/>
<circle cx="315" cy="145" r="4.6"/>
<circle cx="45" cy="155" r="4.6"/>
<circle cx="65" cy="155" r="4.6"/>
<circle cx="75" cy="155" r="4.6"/>
<circle cx="85" cy="155" r="4.6"/>
<circle cx="135" cy="155" r="4.6"/>
<circle cx="155" cy="155" r="4.6"/>
<circle cx="165" cy="155" r="4.6"/>
<circle cx="195" cy="155" r="4.6"/>
<circle cx="235" cy="155" r="4.6"/>
<circle cx="245" cy="155" r="4.6"/>
<circle cx="255" cy="155" r="4.6"/>
<circle cx="285" cy="155" r="4.6"/>
<circle cx="315" cy="155" r="4.6"/>
<circle cx="325" cy="155" r="4.6"/>
<circle cx="55" cy="165" r="4.6"/>
<circle cx="95" cy="165" r="4.6"/>
<circle cx="105" cy="165" r="4.6"/>
<circle cx="135" cy="165" r="4.6"/>
<circle cx="155" cy="165" r="4.6"/>
<circle cx="175" cy="165" r="4.6"/>
<circle cx="195" cy="165" r="4.6"/>
<circle cx="215" cy="165" r="4.6"/>
<circle cx="225" cy="165" r="4.6"/>
<circle cx="245" cy="165" r="4.6"/>
<circle cx="275" cy="165" r="4.6"/>
<circle cx="295" cy="165" r="4.6"/>
<circle cx="305" cy="165" r="4.6"/>
<circle cx="315" cy="165" r="4.6"/>
<circle cx="65" cy="175" r="4.6"/>
<circle cx="75" cy="175" r="4.6"/>
<circle cx="85" cy="175" r="4.6"/>
<circle cx="115" cy="175" r="4.6"/>
<circle cx="125" cy="175" r="4.6"/>
<circle cx="135" cy="175" r="4.6"/>
<circle cx="165" cy="175" r="4.6"/>
<circle cx="185" cy="175" r="4.6"/>
<circle cx="195" cy="175" r="4.6"/>
<circle cx="205" cy="175" r="4.6"/>
<circle cx="235" cy="175" r="4.6"/>
<circle cx="255" cy="175" r="4.6"/>
<circle cx="285" cy="175" r="4.6"/>
<circle cx="305" cy="175" r="4.6"/>
<circle cx="315" cy="175" r="4.6"/>
<circle cx="45" cy="185" r="4.6"/>
<circle cx="105" cy="185" r="4.6"/>
<circle cx="125" cy="185" r="4.6"/>
<circle cx="165" cy="185" r="4.6"/>
<circle cx="175" cy="185" r="4.6"/>
<circle cx="195" cy="185" r="4.6"/>
<circle cx="215" cy="185" r="4.6"/>
<circle cx="285" cy="185" r="4.6"/>
<circle cx="55" cy="195" r="4.6"/>
<circle cx="65" cy="195" r="4.6"/>
<circle cx="95" cy="195" r="4.6"/>
<circle cx="115" cy="195" r="4.6"/>
<circle cx="125" cy="195" r="4.6"/>
<circle cx="135" cy="195" r="4.6"/>
<circle cx="145" cy="195" r="4.6"/>
<circle cx="165" cy="195" r="4.6"/>
<circle cx="235" cy="195" r="4.6"/>
<circle cx="245" cy="195" r="4.6"/>
<circle cx="255" cy="195" r="4.6"/>
<circle cx="265" cy="195" r="4.6"/>
<circle cx="315" cy="195" r="4.6"/>
<circle cx="55" cy="205" r="4.6"/>
<circle cx="65" cy="205" r="4.6"/>
<circle cx="75" cy="205" r="4.6"/>
<circle cx="105" cy="205" r="4.6"/>
<circle cx="175" cy="205" r="4.6"/>
<circle cx="195" cy="205" r="4.6"/>
<circle cx="215" cy="205" r="4.6"/>
<circle cx="225" cy="205" r="4.6"/>
<circle cx="245" cy="205" r="4.6"/>
<circle cx="255" cy="205" r="4.6"/>
<circle cx="275" cy="205" r="4.6"/>
<circle cx="295" cy="205" r="4.6"/>
<circle cx="305" cy="205" r="4.6"/>
<circle cx="315" cy="205" r="4.6"/>
<circle cx="325" cy="205" r="4.6"/>
<circle cx="45" cy="215" r="4.6"/>
<circle cx="55" cy="215" r="4.6"/>
<circle cx="65" cy="215" r="4.6"/>
<circle cx="75" cy="215" r="4.6"/>
<circle cx="95" cy="215" r="4.6"/>
<circle cx="125" cy="215" r="4.6"/>
<circle cx="135" cy="215" r="4.6"/>
<circle cx="145" cy="215" r="4.6"/>
<circle cx="165" cy="215" r="4.6"/>
<circle cx="175" cy="215" r="4.6"/>
<circle cx="185" cy="215" r="4.6"/>
<circle cx="205" cy="215" r="4.6"/>
<circle cx="235" cy="215" r="4.6"/>
<circle cx="265" cy="215" r="4.6"/>
<circle cx="285" cy="215" r="4.6"/>
<circle cx="295" cy="215" r="4.6"/>
<circle cx="325" cy="215" r="4.6"/>
<circle cx="45" cy="225" r="4.6"/>
<circle cx="65" cy="225" r="4.6"/>
<circle cx="105" cy="225" r="4.6"/>
<circle cx="145" cy="225" r="4.6"/>
<circle cx="155" cy="225" r="4.6"/>
<circle cx="195" cy="225" r="4.6"/>
<circle cx="205" cy="225" r="4.6"/>
<circle cx="255" cy="225" r="4.6"/>
<circle cx="275" cy="225" r="4.6"/>
<circle cx="285" cy="225" r="4.6"/>
<circle cx="295" cy="225" r="4.6"/>
<circle cx="45" cy="235" r="4.6"/>
<circle cx="85" cy="235" r="4.6"/>
<circle cx="115" cy="235" r="4.6"/>
<circle cx="145" cy="235" r="4.6"/>
<circle cx="155" cy="235" r="4.6"/>
<circle cx="195" cy="235" r="4.6"/>
<circle cx="205" cy="235" r="4.6"/>
<circle cx="265" cy="235" r="4.6"/>
<circle cx="285" cy="235" r="4.6"/>
<circle cx="315" cy="235" r="4.6"/>
<circle cx="45" cy="245" r="4.6"/>
<circle cx="75" cy="245" r="4.6"/>
<circle cx="95" cy="245" r="4.6"/>
<circle cx="105" cy="245" r="4.6"/>
<circle cx="135" cy="245" r="4.6"/>
<circle cx="145" cy="245" r="4.6"/>
<circle cx="155" cy="245" r="4.6"/>
<circle cx="175" cy="245" r="4.6"/>
<circle cx="195" cy="245" r="4.6"/>
<circle cx="205" cy="245" r="4.6"/>
<circle cx="235" cy="245" r="4.6"/>
<circle cx="245" cy="245" r="4.6"/>
<circle cx="255" cy="245" r="4.6"/>
<circle cx="265" cy="245" r="4.6"/>
<circle cx="275" cy="245" r="4.6"/>
<circle cx="285" cy="245" r="4.6"/>
<circle cx="295" cy="245" r="4.6"/>
<circle cx="305" cy="245" r="4.6"/>
<circle cx="315" cy="245" r="4.6"/>
<circle cx="125" cy="255" r="4.6"/>
<circle cx="145" cy="255" r="4.6"/>
<circle cx="155" cy="255" r="4.6"/>
<circle cx="185" cy="255" r="4.6"/>
<circle cx="225" cy="255" r="4.6"/>
<circle cx="235" cy="255" r="4.6"/>
<circle cx="245" cy="255" r="4.6"/>
<circle cx="285" cy="255" r="4.6"/>
<circle cx="325" cy="255" r="4.6"/>
<circle cx="145" cy="265" r="4.6"/>
<circle cx="185" cy="265" r="4.6"/>
<circle cx="195" cy="265" r="4.6"/>
<circle cx="205" cy="265" r="4.6"/>
<circle cx="235" cy="265" r="4.6"/>
<circle cx="245" cy="265" r="4.6"/>
<circle cx="265" cy="265" r="4.6"/>
<circle cx="285" cy="265" r="4.6"/>
<circle cx="295" cy="265" r="4.6"/>
<circle cx="315" cy="265" r="4.6"/>
<circle cx="125" cy="275" r="4.6"/>
<circle cx="135" cy="275" r="4.6"/>
<circle cx="155" cy="275" r="4.6"/>
<circle cx="195" cy="275" r="4.6"/>
<circle cx="225" cy="275" r="4.6"/>
<circle cx="245" cy="275" r="4.6"/>
<circle cx="285" cy="275" r="4.6"/>
<circle cx="315" cy="275" r="4.6"/>
<circle cx="325" cy="275" r="4.6"/>
<circle cx="125" cy="285" r="4.6"/>
<circle cx="135" cy="285" r="4.6"/>
<circle cx="165" cy="285" r="4.6"/>
<circle cx="205" cy="285" r="4.6"/>
<circle cx="215" cy="285" r="4.6"/>
<circle cx="225" cy="285" r="4.6"/>
<circle cx="245" cy="285" r="4.6"/>
<circle cx="255" cy="285" r="4.6"/>
<circle cx="265" cy="285" r="4.6"/>
<circle cx="275" cy="285" r="4.6"/>
<circle cx="285" cy="285" r="4.6"/>
<circle cx="295" cy="285" r="4.6"/>
<circle cx="305" cy="285" r="4.6"/>
<circle cx="315" cy="285" r="4.6"/>
<circle cx="325" cy="285" r="4.6"/>
<circle cx="125" cy="295" r="4.6"/>
<circle cx="135" cy="295" r="4.6"/>
<circle cx="165" cy="295" r="4.6"/>
<circle cx="235" cy="295" r="4.6"/>
<circle cx="275" cy="295" r="4.6"/>
<circle cx="295" cy="295" r="4.6"/>
<circle cx="315" cy="295" r="4.6"/>
<circle cx="325" cy="295" r="4.6"/>
<circle cx="125" cy="305" r="4.6"/>
<circle cx="135" cy="305" r="4.6"/>
<circle cx="155" cy="305" r="4.6"/>
<circle cx="165" cy="305" r="4.6"/>
<circle cx="195" cy="305" r="4.6"/>
<circle cx="235" cy="305" r="4.6"/>
<circle cx="255" cy="305" r="4.6"/>
<circle cx="265" cy="305" r="4.6"/>
<circle cx="285" cy="305" r="4.6"/>
<circle cx="315" cy="305" r="4.6"/>
<circle cx="145" cy="315" r="4.6"/>
<circle cx="185" cy="315" r="4.6"/>
<circle cx="225" cy="315" r="4.6"/>
<circle cx="255" cy="315" r="4.6"/>
<circle cx="275" cy="315" r="4.6"/>
<circle cx="295" cy="315" r="4.6"/>
<circle cx="315" cy="315" r="4.6"/>
<circle cx="125" cy="325" r="4.6"/>
<circle cx="175" cy="325" r="4.6"/>
<circle cx="185" cy="325" r="4.6"/>
<circle cx="195" cy="325" r="4.6"/>
<circle cx="235" cy="325" r="4.6"/>
<circle cx="255" cy="325" r="4.6"/>
<circle cx="265" cy="325" r="4.6"/>
<circle cx="285" cy="325" r="4.6"/>
<circle cx="305" cy="325" r="4.6"/>
</g></svg>
